<svg width="13" height="13" viewBox="0 0 13 13" fill="none" xmlns="http://www.w3.org/2000/svg">
<path fill-rule="evenodd" clip-rule="evenodd" d="M10.5738 0.0220347C11.114 -0.0927646 11.6454 0.252382 11.7603 0.792543L12.1246 2.50446C12.1816 2.77437 12.0087 3.03984 11.7388 3.09723L2.41167 5.07965H11.9039C12.1798 5.07989 12.4038 5.30369 12.4039 5.57965V11.0797C12.4036 11.6316 11.9558 12.0794 11.4039 12.0797H1.40386C0.85173 12.0797 0.404113 11.6317 0.403857 11.0797V5.07965L0.022021 3.28766C-0.0927433 2.74753 0.252446 2.21604 0.792529 2.10114L10.5738 0.0220347ZM2.25737 5.92926C2.17805 5.92926 2.13816 5.92954 2.10112 5.93512C1.98492 5.9527 1.87807 6.01103 1.80034 6.09918C1.77579 6.12716 1.75419 6.1609 1.71147 6.22711L1.55034 6.47711C1.42173 6.67646 1.35667 6.77656 1.33647 6.85504C1.27141 7.10912 1.41386 7.37063 1.66265 7.45368C1.73957 7.4793 1.85874 7.48004 2.09624 7.48004H3.29936C3.37856 7.48004 3.41863 7.47974 3.45561 7.47418C3.57167 7.45664 3.67771 7.39807 3.75542 7.31012C3.78015 7.28207 3.80238 7.24866 3.84526 7.18219L4.0064 6.93219C4.13487 6.73305 4.19992 6.63271 4.22026 6.55426C4.28553 6.30013 4.14289 6.03877 3.89409 5.95563C3.81717 5.93 3.69802 5.92926 3.4605 5.92926H2.25737ZM5.88237 5.92926C5.80305 5.92926 5.76316 5.92954 5.72612 5.93512C5.60992 5.9527 5.50307 6.01103 5.42534 6.09918C5.40079 6.12716 5.37919 6.1609 5.33647 6.22711L5.17534 6.47711C5.04673 6.67646 4.98167 6.77656 4.96147 6.85504C4.89641 7.10912 5.03886 7.37063 5.28765 7.45368C5.36457 7.4793 5.48374 7.48004 5.72124 7.48004H6.92436C7.00356 7.48004 7.04363 7.47974 7.08061 7.47418C7.19667 7.45664 7.30271 7.39807 7.38042 7.31012C7.40515 7.28207 7.42738 7.24866 7.47026 7.18219L7.6314 6.93219C7.75987 6.73305 7.82492 6.63271 7.84526 6.55426C7.91053 6.30013 7.76789 6.03877 7.51909 5.95563C7.44216 5.93 7.32302 5.92926 7.0855 5.92926H5.88237ZM9.50737 5.92926C9.42805 5.92926 9.38816 5.92954 9.35112 5.93512C9.23492 5.9527 9.12807 6.01103 9.05034 6.09918C9.02579 6.12716 9.00419 6.1609 8.96147 6.22711L8.80034 6.47711C8.67173 6.67646 8.60667 6.77656 8.58647 6.85504C8.52141 7.10912 8.66386 7.37063 8.91265 7.45368C8.98957 7.4793 9.10874 7.48004 9.34624 7.48004H10.5494C10.6286 7.48004 10.6686 7.47974 10.7056 7.47418C10.8217 7.45664 10.9277 7.39807 11.0054 7.31012C11.0302 7.28207 11.0524 7.24866 11.0953 7.18219L11.2564 6.93219C11.3849 6.73305 11.4499 6.63271 11.4703 6.55426C11.5355 6.30013 11.3929 6.03877 11.1441 5.95563C11.0672 5.93 10.948 5.92926 10.7105 5.92926H9.50737ZM3.41167 2.44293C3.33109 2.43389 3.21429 2.45898 2.98198 2.50836L1.80522 2.75836C1.7278 2.77482 1.68888 2.7833 1.65386 2.79645C1.54385 2.83781 1.4518 2.91671 1.39409 3.0191C1.37582 3.05161 1.36158 3.08896 1.33354 3.16266L1.2271 3.44098C1.14277 3.66264 1.10067 3.77408 1.09722 3.85504C1.0864 4.11708 1.27999 4.34308 1.54058 4.37262C1.62114 4.38169 1.738 4.35754 1.97026 4.30817L3.14702 4.05817C3.22439 4.04172 3.2634 4.03319 3.29839 4.02008C3.40836 3.9788 3.5004 3.8997 3.55815 3.79743C3.57653 3.76482 3.59053 3.72696 3.6187 3.65289L3.72515 3.37555C3.80936 3.15418 3.8514 3.04244 3.85503 2.96149C3.86604 2.69929 3.6724 2.47246 3.41167 2.44293ZM6.95757 1.69C6.87699 1.68096 6.76019 1.70508 6.52788 1.75446L5.35112 2.00446C5.27372 2.02091 5.23475 2.02943 5.19976 2.04254C5.08981 2.08387 4.9977 2.1629 4.93999 2.2652C4.92167 2.29779 4.90664 2.33568 4.87847 2.40973L4.773 2.68707C4.68876 2.9085 4.64665 3.0202 4.64311 3.10114C4.63229 3.36324 4.82579 3.59025 5.08647 3.61969C5.16703 3.62876 5.2839 3.60363 5.51616 3.55426L6.69194 3.30426C6.76953 3.28777 6.80924 3.2793 6.84429 3.26618C6.9542 3.22486 7.04633 3.14577 7.10405 3.04352C7.12235 3.011 7.13657 2.97365 7.1646 2.89996L7.27104 2.62164C7.35533 2.40008 7.39737 2.28855 7.40093 2.20758C7.41193 1.94545 7.21819 1.71962 6.95757 1.69ZM10.5025 0.936097C10.4219 0.92716 10.3057 0.951264 10.0738 1.00055L8.89702 1.25153C8.81978 1.26794 8.7806 1.27557 8.74565 1.28864C8.6358 1.32993 8.54361 1.40911 8.48589 1.51129C8.46756 1.54388 8.45254 1.58177 8.42437 1.65582L8.3189 1.93414C8.23458 2.15578 8.19241 2.26726 8.18901 2.34821C8.17834 2.61022 8.37173 2.8364 8.63237 2.86578C8.71289 2.87485 8.82906 2.84967 9.06108 2.80035L10.2378 2.55035C10.3154 2.53386 10.3551 2.5254 10.3902 2.51227C10.5 2.47094 10.5923 2.3918 10.65 2.28961C10.6682 2.25712 10.6825 2.21974 10.7105 2.14606L10.816 1.86774C10.9003 1.646 10.9433 1.53466 10.9468 1.45368C10.9578 1.19141 10.7633 0.965469 10.5025 0.936097Z" fill="#FBFCFF" fill-opacity="0.4"/>
</svg>
