<svg width="8" height="10" viewBox="0 0 8 10" fill="none" xmlns="http://www.w3.org/2000/svg">
<path d="M3.3065 0.186267C3.63248 -0.0796478 4.11296 -0.0609178 4.41685 0.242908L7.41588 3.24291C7.74001 3.56704 7.74001 4.0926 7.41588 4.41674C7.09169 4.74024 6.56695 4.73968 6.24302 4.41576L4.66002 2.83275V8.82982L4.65611 8.91478C4.61345 9.33311 4.25951 9.65984 3.82994 9.6599C3.40032 9.6599 3.04644 9.33314 3.00377 8.91478L2.99986 8.82982V2.83275L1.41685 4.41674C1.09276 4.74066 0.567119 4.74065 0.243024 4.41674C-0.0810523 4.09265 -0.0809635 3.56705 0.243024 3.24291L3.24302 0.242908L3.3065 0.186267Z" fill="#4E5058"/>
</svg>
