<svg width="11" height="11" viewBox="0 0 11 11" fill="none" xmlns="http://www.w3.org/2000/svg">
<path d="M8.77833 10.1924C9.16885 10.5829 9.80202 10.5829 10.1925 10.1924C10.5831 9.80186 10.5831 9.1687 10.1925 8.77817L6.65693 5.24257L10.1924 1.70711C10.5829 1.31659 10.5829 0.683422 10.1924 0.292898C9.80186 -0.0976262 9.1687 -0.0976262 8.77817 0.292898L5.24272 3.82835L1.70726 0.292893C1.31673 -0.0976312 0.68357 -0.097631 0.293045 0.292893C-0.097479 0.683417 -0.0974794 1.31658 0.293045 1.70711L3.82851 5.24257L0.292893 8.77818C-0.0976313 9.1687 -0.0976309 9.80187 0.292893 10.1924C0.683418 10.5829 1.31658 10.5829 1.70711 10.1924L5.24272 6.65678L8.77833 10.1924Z" fill="#FBFCFF"/>
</svg>
