<svg width="15" height="15" viewBox="0 0 15 15" fill="none" xmlns="http://www.w3.org/2000/svg">
<path d="M14.1333 7.46647C14.1333 11.1484 11.1486 14.1331 7.46665 14.1331M14.1333 7.46647C14.1333 3.78457 11.1486 0.799805 7.46665 0.799805M14.1333 7.46647H0.799988M7.46665 14.1331C3.78476 14.1331 0.799988 11.1484 0.799988 7.46647M7.46665 14.1331C9.13417 12.3076 10.0818 9.93845 10.1333 7.46647C10.0818 4.99449 9.13417 2.62537 7.46665 0.799805M7.46665 14.1331C5.79913 12.3076 4.85149 9.93845 4.79999 7.46647C4.85149 4.99449 5.79913 2.62537 7.46665 0.799805M0.799988 7.46647C0.799988 3.78457 3.78476 0.799805 7.46665 0.799805" stroke="#7E828E" stroke-width="1.6" stroke-linecap="round" stroke-linejoin="round"/>
</svg>
