<svg width="91" height="35" viewBox="0 0 91 35" fill="none" xmlns="http://www.w3.org/2000/svg">
<g clip-path="url(#clip0_331_4108)">
<path d="M38.8795 0.427734H32.957V33.685H38.8795V0.427734Z" fill="white"/>
<path d="M49.0455 9.76758H43.123V33.6848H49.0455V9.76758Z" fill="white"/>
<path d="M46.0838 7.40338C44.9525 7.40338 44.0706 7.05266 43.3868 6.33147C42.7098 5.61845 42.3809 4.75765 42.3809 3.70072C42.3809 2.64378 42.7098 1.78366 43.3868 1.06996C44.0617 0.358984 44.9689 -0.00195312 46.0838 -0.00195312C47.1987 -0.00195312 48.0793 0.338553 48.7699 1.00935C49.4536 1.67538 49.7867 2.50962 49.7867 3.56043C49.7867 4.68137 49.457 5.58099 48.7787 6.31036C48.1045 7.03564 47.198 7.4027 46.0838 7.4027V7.40338Z" fill="white"/>
<path d="M65.2235 28.3704C64.445 28.8478 63.5201 29.0895 62.4686 29.0895C61.417 29.0895 60.6318 28.7579 60.0304 28.1041C59.4358 27.4592 59.1341 26.5609 59.1341 25.4345V14.0882H64.7195V9.76783H59.1341V0.427734H53.166V25.5728C53.166 28.3854 53.9431 30.5224 55.4768 31.9246C57.0181 33.3356 58.7119 34.0514 61.5069 34.0514C62.5687 34.0514 63.61 33.924 64.6017 33.6734C65.4693 33.4535 66.2226 33.1327 66.8451 32.7186L65.2241 28.3711L65.2235 28.3704Z" fill="white"/>
<path d="M90.2515 21.8166C90.2515 19.2403 89.6985 17.0066 88.6082 15.1781C87.5178 13.3509 86.1843 11.9167 84.3134 10.915C82.435 9.90979 80.4647 9.40039 78.1253 9.40039C75.7859 9.40039 73.648 9.93294 71.7104 10.9824C69.779 12.0291 68.4223 13.5015 67.3476 15.3572C66.2708 17.215 65.7246 19.3582 65.7246 21.7254C65.7246 24.0926 66.2926 26.2228 67.4123 28.0642C68.5319 29.9064 69.9649 31.3794 72.0033 32.4425C74.0485 33.5096 76.3042 34.0503 79.0413 34.0503C81.2125 34.0503 82.9874 33.7126 84.6464 33.0458C86.1877 32.4268 87.6683 31.5463 88.7212 30.426L85.3867 26.8105C84.6028 27.5113 83.7393 28.0527 82.8151 28.4218C81.7853 28.8338 80.5928 29.0428 79.2708 29.0428C77.7255 29.0428 76.3777 28.7609 75.2649 28.2038C74.1404 27.642 73.2435 26.8187 72.6006 25.757C72.2457 25.172 71.9849 24.5196 71.8262 23.8188L71.8167 23.7779H90.2529V21.8166H90.2515ZM74.765 14.9357C75.7471 14.3725 76.8933 14.0871 78.1709 14.0871C79.4486 14.0871 80.5887 14.3731 81.5565 14.937C82.5243 15.5016 83.2932 16.295 83.8421 17.2947C84.2031 17.9526 84.4408 18.6962 84.5497 19.5039H71.7356C71.8609 18.7044 72.102 17.9696 72.4528 17.3199C73.001 16.3038 73.7788 15.5016 74.765 14.9357Z" fill="white"/>
<path d="M16.7963 34.0007C8.87625 34.0007 1.96079 28.3694 0.351454 20.6113C-1.52826 11.5436 4.32066 2.63592 13.3896 0.755646C13.3896 0.755646 15.3579 0.287109 17.7988 0.287109C20.4965 0.287109 23.1349 0.79174 25.6412 1.7867C26.8732 2.27635 28.0698 2.88654 29.2038 3.6016L25.4614 7.7837C23.109 6.48229 20.461 5.79582 17.7845 5.79582C15.5813 5.79582 13.1553 6.18741 10.6395 7.73331C9.32575 8.54031 8.23061 9.67896 7.35954 11.0049C5.70525 13.5219 5.1318 16.5368 5.74475 19.4937C6.82559 24.7082 11.4731 28.4926 16.7956 28.4926C17.2444 28.4926 17.6953 28.4654 18.1434 28.4116C18.4615 28.3735 18.7816 28.3374 19.0921 28.2563C19.5675 28.1324 20.4658 27.8225 20.9323 27.5671C21.8681 27.055 22.6711 26.3175 23.2738 25.4001C24.2416 23.9258 24.5774 22.1612 24.2191 20.4315C23.1805 15.4083 19.0506 15.0181 17.809 15.0181C16.6968 15.0181 15.5561 15.7556 15.2135 16.6975C15.0637 17.1088 14.9506 17.8804 15.712 18.6792L11.9757 22.8545C10.7219 21.7881 9.85493 20.3293 9.51985 18.7119C8.68828 14.6987 11.2763 10.7556 15.2905 9.92276C15.2905 9.92276 16.5259 9.65581 17.7484 9.65581C19.276 9.65581 20.7736 9.94319 22.1998 10.5091C22.5485 10.6474 22.8904 10.802 23.2159 10.9681C26.5286 12.6489 28.8592 15.6903 29.6111 19.3133C30.269 22.4854 29.6533 25.7202 27.8771 28.4225C26.2616 30.8823 23.8629 32.6359 21.0583 33.4272C20.9548 33.4565 20.8499 33.4845 20.745 33.511C20.5673 33.556 20.0456 33.7031 19.4299 33.7923C19.3032 33.8107 19.1766 33.8311 19.0499 33.8481C18.3014 33.9496 17.5475 34.0007 16.797 34.0007H16.7963Z" fill="white"/>
</g>
<defs>
<clipPath id="clip0_331_4108">
<rect width="90.3053" height="34.0518" fill="white"/>
</clipPath>
</defs>
</svg>
