<svg width="10" height="8" viewBox="0 0 10 8" fill="none" xmlns="http://www.w3.org/2000/svg">
<path d="M3.24294 0.243101C3.56707 -0.0810335 4.09263 -0.0810341 4.41677 0.243101C4.74021 0.567292 4.7397 1.09205 4.41579 1.41595L2.83278 2.99896H8.82985L8.91481 3.00287C9.33317 3.04554 9.65993 3.39942 9.65993 3.82904C9.6599 4.25863 9.33315 4.61254 8.91481 4.65521L8.82985 4.65912H2.83278L4.41677 6.24213C4.74065 6.56624 4.74071 7.09188 4.41677 7.41595C4.09269 7.74001 3.56708 7.73988 3.24294 7.41595L0.242938 4.41595L0.186298 4.35248C-0.0796754 4.0265 -0.0609084 3.54604 0.242938 3.24212L3.24294 0.243101Z" fill="#EBEBED"/>
</svg>
