<svg width="12" height="12" viewBox="0 0 12 12" fill="none" xmlns="http://www.w3.org/2000/svg">
<path d="M6 12C4.33333 12 2.91667 11.4167 1.75 10.25C0.583333 9.08333 0 7.66667 0 6C0 4.33333 0.583333 2.91667 1.75 1.75C2.91667 0.583333 4.33333 0 6 0C6.15556 0 6.30833 0.00555556 6.45833 0.0166667C6.60833 0.0277778 6.75556 0.0444444 6.9 0.0666667C6.44444 0.388889 6.08056 0.808333 5.80833 1.325C5.53611 1.84167 5.4 2.4 5.4 3C5.4 4 5.75 4.85 6.45 5.55C7.15 6.25 8 6.6 9 6.6C9.61111 6.6 10.1722 6.46389 10.6833 6.19167C11.1944 5.91945 11.6111 5.55556 11.9333 5.1C11.9556 5.24444 11.9722 5.39167 11.9833 5.54167C11.9944 5.69167 12 5.84444 12 6C12 7.66667 11.4167 9.08333 10.25 10.25C9.08333 11.4167 7.66667 12 6 12ZM6 10.6667C6.97778 10.6667 7.85556 10.3972 8.63333 9.85833C9.41111 9.31944 9.97778 8.61667 10.3333 7.75C10.1111 7.80556 9.88889 7.85 9.66667 7.88333C9.44444 7.91667 9.22222 7.93333 9 7.93333C7.63333 7.93333 6.46944 7.45278 5.50833 6.49167C4.54722 5.53056 4.06667 4.36667 4.06667 3C4.06667 2.77778 4.08333 2.55556 4.11667 2.33333C4.15 2.11111 4.19444 1.88889 4.25 1.66667C3.38333 2.02222 2.68056 2.58889 2.14167 3.36667C1.60278 4.14444 1.33333 5.02222 1.33333 6C1.33333 7.28889 1.78889 8.38889 2.7 9.3C3.61111 10.2111 4.71111 10.6667 6 10.6667Z" fill="#1D1B20"/>
</svg>
