<svg width="74" height="74" viewBox="0 0 74 74" fill="none" xmlns="http://www.w3.org/2000/svg">
<path fill-rule="evenodd" clip-rule="evenodd" d="M0 0H20.5604V20.5604H0V0ZM2.93721 2.93721V17.6232H17.6232V2.93721H2.93721Z" fill="white"/>
<path fill-rule="evenodd" clip-rule="evenodd" d="M5.87305 5.875H14.6847V14.6866H5.87305V5.875Z" fill="white"/>
<path fill-rule="evenodd" clip-rule="evenodd" d="M73.4277 0V20.5604H52.8673V0L73.4277 0ZM70.4905 2.93721L55.8045 2.93721V17.6232H70.4905V2.93721Z" fill="white"/>
<path fill-rule="evenodd" clip-rule="evenodd" d="M67.5537 5.875V14.6866H58.7421V5.875L67.5537 5.875Z" fill="white"/>
<path fill-rule="evenodd" clip-rule="evenodd" d="M0 73.4316L0 52.8712H20.5604V73.4316H0ZM2.93721 70.4944H17.6232V55.8084H2.93721L2.93721 70.4944Z" fill="white"/>
<path fill-rule="evenodd" clip-rule="evenodd" d="M5.87305 67.5586L5.87305 58.747H14.6847V67.5586H5.87305Z" fill="white"/>
<path fill-rule="evenodd" clip-rule="evenodd" d="M26.4348 1.32174V1.61546C26.4348 1.96601 26.5741 2.3022 26.822 2.55008C27.0699 2.79795 27.406 2.93721 27.7566 2.93721H28.0503C28.4009 2.93721 28.737 3.07646 28.9849 3.32433C29.2328 3.57221 29.3721 3.9084 29.3721 4.25895V4.55267C29.3721 4.90322 29.2328 5.23941 28.9849 5.48728C28.737 5.73516 28.4009 5.87441 28.0503 5.87441H24.8194C24.4688 5.87441 24.1326 6.01366 23.8848 6.26154C23.6369 6.50941 23.4976 6.84561 23.4976 7.19615V22.1759C23.4976 22.5264 23.6369 22.8626 23.8848 23.1105C24.1326 23.3584 24.4688 23.4976 24.8194 23.4976H25.1131C25.4637 23.4976 25.7998 23.3584 26.0477 23.1105C26.2956 22.8626 26.4348 22.5264 26.4348 22.1759V18.945C26.4348 18.5944 26.5741 18.2582 26.822 18.0104C27.0699 17.7625 27.406 17.6232 27.7566 17.6232H28.0503C28.4009 17.6232 28.737 17.7625 28.9849 18.0104C29.2328 18.2582 29.3721 18.5944 29.3721 18.945V19.2387C29.3721 19.4123 29.4062 19.5841 29.4727 19.7445C29.5391 19.9049 29.6364 20.0506 29.7592 20.1733C29.8819 20.296 30.0276 20.3934 30.188 20.4598C30.3483 20.5262 30.5202 20.5604 30.6938 20.5604H30.9875C31.3381 20.5604 31.6743 20.6997 31.9221 20.9476C32.17 21.1954 32.3093 21.5316 32.3093 21.8822V28.0503C32.3093 28.4009 32.17 28.737 31.9221 28.9849C31.6743 29.2328 31.3381 29.3721 30.9875 29.3721H18.945C18.5944 29.3721 18.2582 29.5113 18.0104 29.7592C17.7625 30.0071 17.6232 30.3432 17.6232 30.6938V30.9875C17.6232 31.3381 17.484 31.6743 17.2361 31.9221C16.9882 32.17 16.652 32.3093 16.3015 32.3093H16.0078C15.8342 32.3093 15.6623 32.2751 15.502 32.2086C15.3416 32.1422 15.1959 32.0449 15.0732 31.9221C14.9504 31.7994 14.8531 31.6537 14.7866 31.4933C14.7202 31.333 14.686 31.1611 14.686 30.9875V27.7566C14.686 27.583 14.7202 27.4111 14.7866 27.2508C14.8531 27.0904 14.9504 26.9447 15.0732 26.822C15.1959 26.6992 15.3416 26.6019 15.502 26.5355C15.6623 26.469 15.8342 26.4348 16.0078 26.4348H19.2387C19.5892 26.4348 19.9254 26.2956 20.1733 26.0477C20.4212 25.7998 20.5604 25.4637 20.5604 25.1131V24.8194C20.5604 24.6458 20.5262 24.4739 20.4598 24.3136C20.3934 24.1532 20.296 24.0075 20.1733 23.8848C20.0506 23.762 19.9049 23.6647 19.7445 23.5983C19.5841 23.5318 19.4123 23.4976 19.2387 23.4976H7.19615C6.84561 23.4976 6.50941 23.6369 6.26154 23.8848C6.01366 24.1326 5.87441 24.4688 5.87441 24.8194V25.1131C5.87441 25.4637 6.01366 25.7998 6.26154 26.0477C6.50941 26.2956 6.84561 26.4348 7.19615 26.4348H7.48987C7.84042 26.4348 8.17661 26.5741 8.42449 26.822C8.67236 27.0699 8.81162 27.406 8.81162 27.7566V28.0503C8.81162 28.4009 8.67236 28.737 8.42449 28.9849C8.17661 29.2328 7.84042 29.3721 7.48987 29.3721H7.19615C6.84561 29.3721 6.50941 29.5113 6.26154 29.7592C6.01366 30.0071 5.87441 30.3432 5.87441 30.6938V30.9875C5.87441 31.3381 5.73516 31.6743 5.48728 31.9221C5.23941 32.17 4.90322 32.3093 4.55267 32.3093H4.25895C3.9084 32.3093 3.57221 32.17 3.32433 31.9221C3.07646 31.6743 2.93721 31.3381 2.93721 30.9875V24.8194C2.93721 24.4688 2.79795 24.1326 2.55008 23.8848C2.3022 23.6369 1.96601 23.4976 1.61546 23.4976H1.32174C0.971194 23.4976 0.635004 23.6369 0.387129 23.8848C0.139255 24.1326 0 24.4688 0 24.8194L0 30.9875C0 31.3381 0.139255 31.6743 0.387129 31.9221C0.635004 32.17 0.971194 32.3093 1.32174 32.3093H1.61546C1.96601 32.3093 2.3022 32.4485 2.55008 32.6964C2.79795 32.9443 2.93721 33.2805 2.93721 33.631V36.8619C2.93721 37.2125 2.79795 37.5487 2.55008 37.7965C2.3022 38.0444 1.96601 38.1837 1.61546 38.1837H1.32174C0.971194 38.1837 0.635004 38.3229 0.387129 38.5708C0.139255 38.8187 0 39.1549 0 39.5054L0 48.6107C0 48.9613 0.139255 49.2975 0.387129 49.5454C0.635004 49.7932 0.971194 49.9325 1.32174 49.9325H1.61546C1.96601 49.9325 2.3022 49.7932 2.55008 49.5454C2.79795 49.2975 2.93721 48.9613 2.93721 48.6107V39.5054C2.93721 39.1549 3.07646 38.8187 3.32433 38.5708C3.57221 38.3229 3.9084 38.1837 4.25895 38.1837H4.55267C4.90322 38.1837 5.23941 38.3229 5.48728 38.5708C5.73516 38.8187 5.87441 39.1549 5.87441 39.5054V39.7991C5.87441 40.1497 6.01366 40.4859 6.26154 40.7337C6.50941 40.9816 6.84561 41.1209 7.19615 41.1209H13.3643C13.7148 41.1209 14.051 40.9816 14.2989 40.7337C14.5468 40.4859 14.686 40.1497 14.686 39.7991V39.5054C14.686 39.3318 14.7202 39.16 14.7866 38.9996C14.8531 38.8392 14.9504 38.6935 15.0732 38.5708C15.1959 38.4481 15.3416 38.3507 15.502 38.2843C15.6623 38.2179 15.8342 38.1837 16.0078 38.1837H19.2387C19.4123 38.1837 19.5841 38.2179 19.7445 38.2843C19.9049 38.3507 20.0506 38.4481 20.1733 38.5708C20.296 38.6935 20.3934 38.8392 20.4598 38.9996C20.5262 39.16 20.5604 39.3318 20.5604 39.5054V39.7991C20.5604 39.9727 20.5262 40.1446 20.4598 40.3049C20.3934 40.4653 20.296 40.611 20.1733 40.7337C20.0506 40.8565 19.9049 40.9538 19.7445 41.0203C19.5841 41.0867 19.4123 41.1209 19.2387 41.1209H18.945C18.5944 41.1209 18.2582 41.2601 18.0104 41.508C17.7625 41.7559 17.6232 42.0921 17.6232 42.4426V42.7363C17.6232 43.0869 17.484 43.4231 17.2361 43.671C16.9882 43.9188 16.652 44.0581 16.3015 44.0581H16.0078C15.8342 44.0581 15.6623 44.0923 15.502 44.1587C15.3416 44.2251 15.1959 44.3225 15.0732 44.4452C14.9504 44.5679 14.8531 44.7137 14.7866 44.874C14.7202 45.0344 14.686 45.2062 14.686 45.3798V45.6735C14.686 46.0241 14.5468 46.3603 14.2989 46.6082C14.051 46.856 13.7148 46.9953 13.3643 46.9953H13.0706C12.72 46.9953 12.3838 47.1345 12.136 47.3824C11.8881 47.6303 11.7488 47.9665 11.7488 48.317V48.6107C11.7488 48.9613 11.8881 49.2975 12.136 49.5454C12.3838 49.7932 12.72 49.9325 13.0706 49.9325H13.3643C13.7148 49.9325 14.051 49.7932 14.2989 49.5454C14.5468 49.2975 14.686 48.9613 14.686 48.6107V48.317C14.686 48.1435 14.7202 47.9716 14.7866 47.8112C14.8531 47.6509 14.9504 47.5051 15.0732 47.3824C15.1959 47.2597 15.3416 47.1623 15.502 47.0959C15.6623 47.0295 15.8342 46.9953 16.0078 46.9953H16.3015C16.652 46.9953 16.9882 47.1345 17.2361 47.3824C17.484 47.6303 17.6232 47.9665 17.6232 48.317V48.6107C17.6232 48.9613 17.7625 49.2975 18.0104 49.5454C18.2582 49.7932 18.5944 49.9325 18.945 49.9325H22.1759C22.5264 49.9325 22.8626 50.0717 23.1105 50.3196C23.3584 50.5675 23.4976 50.9037 23.4976 51.2542V51.548C23.4976 51.8985 23.6369 52.2347 23.8848 52.4826C24.1326 52.7304 24.4688 52.8697 24.8194 52.8697H25.1131C25.4637 52.8697 25.7998 52.7304 26.0477 52.4826C26.2956 52.2347 26.4348 51.8985 26.4348 51.548V51.2542C26.4348 50.9037 26.5741 50.5675 26.822 50.3196C27.0699 50.0717 27.406 49.9325 27.7566 49.9325H28.0503C28.4009 49.9325 28.737 49.7932 28.9849 49.5454C29.2328 49.2975 29.3721 48.9613 29.3721 48.6107V45.3798C29.3721 45.0293 29.5113 44.6931 29.7592 44.4452C30.0071 44.1973 30.3432 44.0581 30.6938 44.0581H30.9875C31.3381 44.0581 31.6743 43.9188 31.9221 43.671C32.17 43.4231 32.3093 43.0869 32.3093 42.7363V42.4426C32.3093 42.0921 32.17 41.7559 31.9221 41.508C31.6743 41.2601 31.3381 41.1209 30.9875 41.1209H30.6938C30.3432 41.1209 30.0071 40.9816 29.7592 40.7337C29.5113 40.4859 29.3721 40.1497 29.3721 39.7991V39.5054C29.3721 39.1549 29.5113 38.8187 29.7592 38.5708C30.0071 38.3229 30.3432 38.1837 30.6938 38.1837H30.9875C31.3381 38.1837 31.6743 38.0444 31.9221 37.7965C32.17 37.5487 32.3093 37.2125 32.3093 36.8619V36.5682C32.3093 36.2177 32.17 35.8815 31.9221 35.6336C31.6743 35.3857 31.3381 35.2465 30.9875 35.2465H30.6938C30.3432 35.2465 30.0071 35.1072 29.7592 34.8593C29.5113 34.6115 29.3721 34.2753 29.3721 33.9247V33.631C29.3721 33.2805 29.5113 32.9443 29.7592 32.6964C30.0071 32.4485 30.3432 32.3093 30.6938 32.3093H30.9875C31.3381 32.3093 31.6743 32.17 31.9221 31.9221C32.17 31.6743 32.3093 31.3381 32.3093 30.9875V30.6938C32.3093 30.3432 32.4485 30.0071 32.6964 29.7592C32.9443 29.5113 33.2805 29.3721 33.631 29.3721H36.8619C37.2125 29.3721 37.5487 29.5113 37.7965 29.7592C38.0444 30.0071 38.1837 30.3432 38.1837 30.6938V30.9875C38.1837 31.3381 38.3229 31.6743 38.5708 31.9221C38.8187 32.17 39.1549 32.3093 39.5054 32.3093H45.6735C46.0241 32.3093 46.3603 32.4485 46.6082 32.6964C46.856 32.9443 46.9953 33.2805 46.9953 33.631V33.9247C46.9953 34.2753 46.856 34.6115 46.6082 34.8593C46.3603 35.1072 46.0241 35.2465 45.6735 35.2465H36.5682C36.2177 35.2465 35.8815 35.3857 35.6336 35.6336C35.3857 35.8815 35.2465 36.2177 35.2465 36.5682V48.6107C35.2465 48.9613 35.3857 49.2975 35.6336 49.5454C35.8815 49.7932 36.2177 49.9325 36.5682 49.9325H36.8619C37.2125 49.9325 37.5487 49.7932 37.7965 49.5454C38.0444 49.2975 38.1837 48.9613 38.1837 48.6107V45.3798C38.1837 45.0293 38.3229 44.6931 38.5708 44.4452C38.8187 44.1973 39.1549 44.0581 39.5054 44.0581H39.7991C40.1497 44.0581 40.4859 44.1973 40.7337 44.4452C40.9816 44.6931 41.1209 45.0293 41.1209 45.3798V45.6735C41.1209 46.0241 41.2601 46.3603 41.508 46.6082C41.7559 46.856 42.0921 46.9953 42.4426 46.9953H42.7363C43.0869 46.9953 43.4231 47.1345 43.671 47.3824C43.9188 47.6303 44.0581 47.9665 44.0581 48.317V48.6107C44.0581 48.9613 44.1973 49.2975 44.4452 49.5454C44.6931 49.7932 45.0293 49.9325 45.3798 49.9325H45.6735C46.0241 49.9325 46.3603 50.0717 46.6082 50.3196C46.856 50.5675 46.9953 50.9037 46.9953 51.2542V57.4224C46.9953 57.7729 46.856 58.1091 46.6082 58.357C46.3603 58.6049 46.0241 58.7441 45.6735 58.7441H45.3798C45.0293 58.7441 44.6931 58.8834 44.4452 59.1312C44.1973 59.3791 44.0581 59.7153 44.0581 60.0658V60.3596C44.0581 60.7101 44.1973 61.0463 44.4452 61.2942C44.6931 61.5421 45.0293 61.6813 45.3798 61.6813H45.6735C46.0241 61.6813 46.3603 61.8206 46.6082 62.0684C46.856 62.3163 46.9953 62.6525 46.9953 63.0031V63.2968C46.9953 63.6473 47.1345 63.9835 47.3824 64.2314C47.6303 64.4793 47.9665 64.6185 48.317 64.6185H48.6107C48.9613 64.6185 49.2975 64.7578 49.5454 65.0056C49.7932 65.2535 49.9325 65.5897 49.9325 65.9403V69.1712C49.9325 69.5217 50.0717 69.8579 50.3196 70.1058C50.5675 70.3537 50.9037 70.4929 51.2542 70.4929H63.2968C63.6473 70.4929 63.9835 70.6322 64.2314 70.8801C64.4793 71.1279 64.6185 71.4641 64.6185 71.8147V72.1084C64.6185 72.4589 64.7578 72.7951 65.0056 73.043C65.2535 73.2909 65.5897 73.4301 65.9403 73.4301H72.1084C72.4589 73.4301 72.7951 73.2909 73.043 73.043C73.2909 72.7951 73.4301 72.4589 73.4301 72.1084V71.8147C73.4301 71.4641 73.2909 71.1279 73.043 70.8801C72.7951 70.6322 72.4589 70.4929 72.1084 70.4929H71.8147C71.4641 70.4929 71.1279 70.3537 70.8801 70.1058C70.6322 69.8579 70.4929 69.5217 70.4929 69.1712V68.8775C70.4929 68.5269 70.6322 68.1907 70.8801 67.9428C71.1279 67.695 71.4641 67.5557 71.8147 67.5557H72.1084C72.4589 67.5557 72.7951 67.4165 73.043 67.1686C73.2909 66.9207 73.4301 66.5845 73.4301 66.234V63.0031C73.4301 62.6525 73.2909 62.3163 73.043 62.0684C72.7951 61.8206 72.4589 61.6813 72.1084 61.6813H68.8775C68.5269 61.6813 68.1907 61.8206 67.9428 62.0684C67.695 62.3163 67.5557 62.6525 67.5557 63.0031V63.2968C67.5557 63.6473 67.4165 63.9835 67.1686 64.2314C66.9207 64.4793 66.5845 64.6185 66.234 64.6185H65.9403C65.5897 64.6185 65.2535 64.7578 65.0056 65.0056C64.7578 65.2535 64.6185 65.5897 64.6185 65.9403V66.234C64.6185 66.5845 64.4793 66.9207 64.2314 67.1686C63.9835 67.4165 63.6473 67.5557 63.2968 67.5557H63.0031C62.6525 67.5557 62.3163 67.4165 62.0684 67.1686C61.8206 66.9207 61.6813 66.5845 61.6813 66.234V63.0031C61.6813 62.6525 61.8206 62.3163 62.0684 62.0684C62.3163 61.8206 62.6525 61.6813 63.0031 61.6813H63.2968C63.6473 61.6813 63.9835 61.5421 64.2314 61.2942C64.4793 61.0463 64.6185 60.7101 64.6185 60.3596V57.1286C64.6185 56.7781 64.7578 56.4419 65.0056 56.194C65.2535 55.9462 65.5897 55.8069 65.9403 55.8069H72.1084C72.4589 55.8069 72.7951 55.6676 73.043 55.4198C73.2909 55.1719 73.4301 54.8357 73.4301 54.4852V45.3798C73.4301 45.0293 73.2909 44.6931 73.043 44.4452C72.7951 44.1973 72.4589 44.0581 72.1084 44.0581H68.8775C68.5269 44.0581 68.1907 43.9188 67.9428 43.671C67.695 43.4231 67.5557 43.0869 67.5557 42.7363V42.4426C67.5557 42.0921 67.4165 41.7559 67.1686 41.508C66.9207 41.2601 66.5845 41.1209 66.234 41.1209H65.9403C65.5897 41.1209 65.2535 41.2601 65.0056 41.508C64.7578 41.7559 64.6185 42.0921 64.6185 42.4426V42.7363C64.6185 43.0869 64.7578 43.4231 65.0056 43.671C65.2535 43.9188 65.5897 44.0581 65.9403 44.0581H66.234C66.5845 44.0581 66.9207 44.1973 67.1686 44.4452C67.4165 44.6931 67.5557 45.0293 67.5557 45.3798V45.6735C67.5557 46.0241 67.695 46.3603 67.9428 46.6082C68.1907 46.856 68.5269 46.9953 68.8775 46.9953H69.1712C69.5217 46.9953 69.8579 47.1345 70.1058 47.3824C70.3537 47.6303 70.4929 47.9665 70.4929 48.317V51.548C70.4929 51.8985 70.3537 52.2347 70.1058 52.4826C69.8579 52.7304 69.5217 52.8697 69.1712 52.8697H65.9403C65.5897 52.8697 65.2535 53.0089 65.0056 53.2568C64.7578 53.5047 64.6185 53.8409 64.6185 54.1914V54.4852C64.6185 54.8357 64.4793 55.1719 64.2314 55.4198C63.9835 55.6676 63.6473 55.8069 63.2968 55.8069H63.0031C62.6525 55.8069 62.3163 55.6676 62.0684 55.4198C61.8206 55.1719 61.6813 54.8357 61.6813 54.4852V51.2542C61.6813 50.9037 61.8206 50.5675 62.0684 50.3196C62.3163 50.0717 62.6525 49.9325 63.0031 49.9325H63.2968C63.6473 49.9325 63.9835 49.7932 64.2314 49.5454C64.4793 49.2975 64.6185 48.9613 64.6185 48.6107V48.317C64.6185 47.9665 64.4793 47.6303 64.2314 47.3824C63.9835 47.1345 63.6473 46.9953 63.2968 46.9953H45.3798C45.0293 46.9953 44.6931 46.856 44.4452 46.6082C44.1973 46.3603 44.0581 46.0241 44.0581 45.6735V45.3798C44.0581 45.0293 43.9188 44.6931 43.671 44.4452C43.4231 44.1973 43.0869 44.0581 42.7363 44.0581H42.4426C42.0921 44.0581 41.7559 43.9188 41.508 43.671C41.2601 43.4231 41.1209 43.0869 41.1209 42.7363V42.4426C41.1209 42.0921 41.2601 41.7559 41.508 41.508C41.7559 41.2601 42.0921 41.1209 42.4426 41.1209H42.7363C43.0869 41.1209 43.4231 40.9816 43.671 40.7337C43.9188 40.4859 44.0581 40.1497 44.0581 39.7991V39.5054C44.0581 39.1549 44.1973 38.8187 44.4452 38.5708C44.6931 38.3229 45.0293 38.1837 45.3798 38.1837H45.6735C46.0241 38.1837 46.3603 38.3229 46.6082 38.5708C46.856 38.8187 46.9953 39.1549 46.9953 39.5054V39.7991C46.9953 40.1497 47.1345 40.4859 47.3824 40.7337C47.6303 40.9816 47.9665 41.1209 48.317 41.1209H48.6107C48.9613 41.1209 49.2975 41.2601 49.5454 41.508C49.7932 41.7559 49.9325 42.0921 49.9325 42.4426V42.7363C49.9325 43.0869 50.0717 43.4231 50.3196 43.671C50.5675 43.9188 50.9037 44.0581 51.2542 44.0581H54.4852C54.8357 44.0581 55.1719 43.9188 55.4198 43.671C55.6676 43.4231 55.8069 43.0869 55.8069 42.7363V42.4426C55.8069 42.0921 55.9462 41.7559 56.194 41.508C56.4419 41.2601 56.7781 41.1209 57.1286 41.1209H57.4224C57.7729 41.1209 58.1091 41.2601 58.357 41.508C58.6049 41.7559 58.7441 42.0921 58.7441 42.4426V42.7363C58.7441 43.0869 58.8834 43.4231 59.1312 43.671C59.3791 43.9188 59.7153 44.0581 60.0658 44.0581H60.3596C60.7101 44.0581 61.0463 43.9188 61.2942 43.671C61.5421 43.4231 61.6813 43.0869 61.6813 42.7363V39.5054C61.6813 39.1549 61.8206 38.8187 62.0684 38.5708C62.3163 38.3229 62.6525 38.1837 63.0031 38.1837H63.2968C63.6473 38.1837 63.9835 38.0444 64.2314 37.7965C64.4793 37.5487 64.6185 37.2125 64.6185 36.8619V36.5682C64.6185 36.2177 64.4793 35.8815 64.2314 35.6336C63.9835 35.3857 63.6473 35.2465 63.2968 35.2465H54.1914C53.8409 35.2465 53.5047 35.1072 53.2568 34.8593C53.0089 34.6115 52.8697 34.2753 52.8697 33.9247V33.631C52.8697 33.2805 53.0089 32.9443 53.2568 32.6964C53.5047 32.4485 53.8409 32.3093 54.1914 32.3093H54.4852C54.8357 32.3093 55.1719 32.17 55.4198 31.9221C55.6676 31.6743 55.8069 31.3381 55.8069 30.9875V30.6938C55.8069 30.3432 55.9462 30.0071 56.194 29.7592C56.4419 29.5113 56.7781 29.3721 57.1286 29.3721H57.4224C57.7729 29.3721 58.1091 29.5113 58.357 29.7592C58.6049 30.0071 58.7441 30.3432 58.7441 30.6938V30.9875C58.7441 31.3381 58.8834 31.6743 59.1312 31.9221C59.3791 32.17 59.7153 32.3093 60.0658 32.3093H60.3596C60.7101 32.3093 61.0463 32.17 61.2942 31.9221C61.5421 31.6743 61.6813 31.3381 61.6813 30.9875V27.7566C61.6813 27.406 61.8206 27.0699 62.0684 26.822C62.3163 26.5741 62.6525 26.4348 63.0031 26.4348H66.234C66.5845 26.4348 66.9207 26.2956 67.1686 26.0477C67.4165 25.7998 67.5557 25.4637 67.5557 25.1131V24.8194C67.5557 24.4688 67.4165 24.1326 67.1686 23.8848C66.9207 23.6369 66.5845 23.4976 66.234 23.4976H54.1914C53.8409 23.4976 53.5047 23.6369 53.2568 23.8848C53.0089 24.1326 52.8697 24.4688 52.8697 24.8194V25.1131C52.8697 25.4637 52.7304 25.7998 52.4826 26.0477C52.2347 26.2956 51.8985 26.4348 51.548 26.4348H51.2542C50.9037 26.4348 50.5675 26.5741 50.3196 26.822C50.0717 27.0699 49.9325 27.406 49.9325 27.7566V28.0503C49.9325 28.4009 49.7932 28.737 49.5454 28.9849C49.2975 29.2328 48.9613 29.3721 48.6107 29.3721H48.317C47.9665 29.3721 47.6303 29.2328 47.3824 28.9849C47.1345 28.737 46.9953 28.4009 46.9953 28.0503V24.8194C46.9953 24.4688 47.1345 24.1326 47.3824 23.8848C47.6303 23.6369 47.9665 23.4976 48.317 23.4976H48.6107C48.9613 23.4976 49.2975 23.3584 49.5454 23.1105C49.7932 22.8626 49.9325 22.5264 49.9325 22.1759V18.945C49.9325 18.5944 49.7932 18.2582 49.5454 18.0104C49.2975 17.7625 48.9613 17.6232 48.6107 17.6232H48.317C47.9665 17.6232 47.6303 17.484 47.3824 17.2361C47.1345 16.9882 46.9953 16.652 46.9953 16.3015V13.0706C46.9953 12.72 47.1345 12.3838 47.3824 12.136C47.6303 11.8881 47.9665 11.7488 48.317 11.7488H48.6107C48.9613 11.7488 49.2975 11.6096 49.5454 11.3617C49.7932 11.1138 49.9325 10.7776 49.9325 10.4271V7.19615C49.9325 6.84561 49.7932 6.50941 49.5454 6.26154C49.2975 6.01366 48.9613 5.87441 48.6107 5.87441H48.317C47.9665 5.87441 47.6303 5.73516 47.3824 5.48728C47.1345 5.23941 46.9953 4.90322 46.9953 4.55267V4.25895C46.9953 3.9084 47.1345 3.57221 47.3824 3.32433C47.6303 3.07646 47.9665 2.93721 48.317 2.93721H48.6107C48.9613 2.93721 49.2975 2.79795 49.5454 2.55008C49.7932 2.3022 49.9325 1.96601 49.9325 1.61546V1.32174C49.9325 0.971194 49.7932 0.635004 49.5454 0.387129C49.2975 0.139255 48.9613 0 48.6107 0L48.317 0C47.9665 0 47.6303 0.139255 47.3824 0.387129C47.1345 0.635004 46.9953 0.971194 46.9953 1.32174V1.61546C46.9953 1.96601 46.856 2.3022 46.6082 2.55008C46.3603 2.79795 46.0241 2.93721 45.6735 2.93721H45.3798C45.0293 2.93721 44.6931 2.79795 44.4452 2.55008C44.1973 2.3022 44.0581 1.96601 44.0581 1.61546V1.32174C44.0581 0.971194 43.9188 0.635004 43.671 0.387129C43.4231 0.139255 43.0869 0 42.7363 0L42.4426 0C42.0921 0 41.7559 0.139255 41.508 0.387129C41.2601 0.635004 41.1209 0.971194 41.1209 1.32174V1.61546C41.1209 1.96601 40.9816 2.3022 40.7337 2.55008C40.4859 2.79795 40.1497 2.93721 39.7991 2.93721H39.5054C39.1549 2.93721 38.8187 2.79795 38.5708 2.55008C38.3229 2.3022 38.1837 1.96601 38.1837 1.61546V1.32174C38.1837 0.971194 38.0444 0.635004 37.7965 0.387129C37.5487 0.139255 37.2125 0 36.8619 0L36.5682 0C36.2177 0 35.8815 0.139255 35.6336 0.387129C35.3857 0.635004 35.2465 0.971194 35.2465 1.32174V1.61546C35.2465 1.96601 35.3857 2.3022 35.6336 2.55008C35.8815 2.79795 36.2177 2.93721 36.5682 2.93721H36.8619C37.2125 2.93721 37.5487 3.07646 37.7965 3.32433C38.0444 3.57221 38.1837 3.9084 38.1837 4.25895V4.55267C38.1837 4.90322 38.3229 5.23941 38.5708 5.48728C38.8187 5.73516 39.1549 5.87441 39.5054 5.87441H45.6735C46.0241 5.87441 46.3603 6.01366 46.6082 6.26154C46.856 6.50941 46.9953 6.84561 46.9953 7.19615V7.48987C46.9953 7.84042 46.856 8.17661 46.6082 8.42449C46.3603 8.67236 46.0241 8.81162 45.6735 8.81162H42.4426C42.0921 8.81162 41.7559 8.95087 41.508 9.19874C41.2601 9.44662 41.1209 9.78281 41.1209 10.1334V13.3643C41.1209 13.7148 40.9816 14.051 40.7337 14.2989C40.4859 14.5468 40.1497 14.686 39.7991 14.686H39.5054C39.1549 14.686 38.8187 14.5468 38.5708 14.2989C38.3229 14.051 38.1837 13.7148 38.1837 13.3643V10.1334C38.1837 9.78281 38.0444 9.44662 37.7965 9.19874C37.5487 8.95087 37.2125 8.81162 36.8619 8.81162H33.631C33.2805 8.81162 32.9443 8.67236 32.6964 8.42449C32.4485 8.17661 32.3093 7.84042 32.3093 7.48987V1.32174C32.3093 0.971194 32.17 0.635004 31.9221 0.387129C31.6743 0.139255 31.3381 0 30.9875 0L27.7566 0C27.406 0 27.0699 0.139255 26.822 0.387129C26.5741 0.635004 26.4348 0.971194 26.4348 1.32174ZM29.3721 10.1334V10.4271C29.3721 10.7776 29.2328 11.1138 28.9849 11.3617C28.737 11.6096 28.4009 11.7488 28.0503 11.7488H27.7566C27.406 11.7488 27.0699 11.8881 26.822 12.136C26.5741 12.3838 26.4348 12.72 26.4348 13.0706V13.3643C26.4348 13.7148 26.5741 14.051 26.822 14.2989C27.0699 14.5468 27.406 14.686 27.7566 14.686H28.0503C28.4009 14.686 28.737 14.5468 28.9849 14.2989C29.2328 14.051 29.3721 13.7148 29.3721 13.3643V13.0706C29.3721 12.72 29.5113 12.3838 29.7592 12.136C30.0071 11.8881 30.3432 11.7488 30.6938 11.7488H30.9875C31.3381 11.7488 31.6743 11.8881 31.9221 12.136C32.17 12.3838 32.3093 12.72 32.3093 13.0706V19.2387C32.3093 19.4123 32.3434 19.5841 32.4099 19.7445C32.4763 19.9049 32.5737 20.0506 32.6964 20.1733C32.8191 20.296 32.9648 20.3934 33.1252 20.4598C33.2856 20.5262 33.4574 20.5604 33.631 20.5604H33.9247C34.2753 20.5604 34.6115 20.6997 34.8593 20.9476C35.1072 21.1954 35.2465 21.5316 35.2465 21.8822V22.1759C35.2465 22.5264 35.3857 22.8626 35.6336 23.1105C35.8815 23.3584 36.2177 23.4976 36.5682 23.4976H36.8619C37.2125 23.4976 37.5487 23.3584 37.7965 23.1105C38.0444 22.8626 38.1837 22.5264 38.1837 22.1759V21.8822C38.1837 21.5316 38.3229 21.1954 38.5708 20.9476C38.8187 20.6997 39.1549 20.5604 39.5054 20.5604H39.7991C40.1497 20.5604 40.4859 20.6997 40.7337 20.9476C40.9816 21.1954 41.1209 21.5316 41.1209 21.8822V22.1759C41.1209 22.5264 41.2601 22.8626 41.508 23.1105C41.7559 23.3584 42.0921 23.4976 42.4426 23.4976H45.6735C46.0241 23.4976 46.3603 23.3584 46.6082 23.1105C46.856 22.8626 46.9953 22.5264 46.9953 22.1759V18.945C46.9953 18.5944 46.856 18.2582 46.6082 18.0104C46.3603 17.7625 46.0241 17.6232 45.6735 17.6232H45.3798C45.0293 17.6232 44.6931 17.484 44.4452 17.2361C44.1973 16.9882 44.0581 16.652 44.0581 16.3015V16.0078C44.0581 15.8342 44.0239 15.6623 43.9575 15.502C43.891 15.3416 43.7937 15.1959 43.671 15.0732C43.5482 14.9504 43.4025 14.8531 43.2421 14.7866C43.0818 14.7202 42.9099 14.686 42.7363 14.686H42.4426C42.269 14.686 42.0972 14.7202 41.9368 14.7866C41.7764 14.8531 41.6307 14.9504 41.508 15.0732C41.3853 15.1959 41.2879 15.3416 41.2215 15.502C41.1551 15.6623 41.1209 15.8342 41.1209 16.0078V16.3015C41.1209 16.652 40.9816 16.9882 40.7337 17.2361C40.4859 17.484 40.1497 17.6232 39.7991 17.6232H39.5054C39.1549 17.6232 38.8187 17.484 38.5708 17.2361C38.3229 16.9882 38.1837 16.652 38.1837 16.3015V16.0078C38.1837 15.8342 38.1495 15.6623 38.0831 15.502C38.0166 15.3416 37.9193 15.1959 37.7965 15.0732C37.6738 14.9504 37.5281 14.8531 37.3677 14.7866C37.2074 14.7202 37.0355 14.686 36.8619 14.686H36.5682C36.2177 14.686 35.8815 14.5468 35.6336 14.2989C35.3857 14.051 35.2465 13.7148 35.2465 13.3643V13.0706C35.2465 12.72 35.1072 12.3838 34.8593 12.136C34.6115 11.8881 34.2753 11.7488 33.9247 11.7488H33.631C33.2805 11.7488 32.9443 11.6096 32.6964 11.3617C32.4485 11.1138 32.3093 10.7776 32.3093 10.4271V10.1334C32.3093 9.78281 32.17 9.44662 31.9221 9.19874C31.6743 8.95087 31.3381 8.81162 30.9875 8.81162H30.6938C30.3432 8.81162 30.0071 8.95087 29.7592 9.19874C29.5113 9.44662 29.3721 9.78281 29.3721 10.1334ZM35.2465 18.945V19.2387C35.2465 19.4123 35.2807 19.5841 35.3471 19.7445C35.4135 19.9049 35.5109 20.0506 35.6336 20.1733C35.7563 20.296 35.902 20.3934 36.0624 20.4598C36.2228 20.5262 36.3946 20.5604 36.5682 20.5604H36.8619C37.0355 20.5604 37.2074 20.5262 37.3677 20.4598C37.5281 20.3934 37.6738 20.296 37.7965 20.1733C37.9193 20.0506 38.0166 19.9049 38.0831 19.7445C38.1495 19.5841 38.1837 19.4123 38.1837 19.2387V18.945C38.1837 18.5944 38.0444 18.2582 37.7965 18.0104C37.5487 17.7625 37.2125 17.6232 36.8619 17.6232H36.5682C36.2177 17.6232 35.8815 17.7625 35.6336 18.0104C35.3857 18.2582 35.2465 18.5944 35.2465 18.945ZM41.1209 18.945V19.2387C41.1209 19.4123 41.1551 19.5841 41.2215 19.7445C41.2879 19.9049 41.3853 20.0506 41.508 20.1733C41.6307 20.296 41.7764 20.3934 41.9368 20.4598C42.0972 20.5262 42.269 20.5604 42.4426 20.5604H42.7363C42.9099 20.5604 43.0818 20.5262 43.2421 20.4598C43.4025 20.3934 43.5482 20.296 43.671 20.1733C43.7937 20.0506 43.891 19.9049 43.9575 19.7445C44.0239 19.5841 44.0581 19.4123 44.0581 19.2387V18.945C44.0581 18.5944 43.9188 18.2582 43.671 18.0104C43.4231 17.7625 43.0869 17.6232 42.7363 17.6232H42.4426C42.0921 17.6232 41.7559 17.7625 41.508 18.0104C41.2601 18.2582 41.1209 18.5944 41.1209 18.945ZM38.1837 27.7566V28.0503C38.1837 28.4009 38.3229 28.737 38.5708 28.9849C38.8187 29.2328 39.1549 29.3721 39.5054 29.3721H39.7991C40.1497 29.3721 40.4859 29.2328 40.7337 28.9849C40.9816 28.737 41.1209 28.4009 41.1209 28.0503V27.7566C41.1209 27.406 40.9816 27.0699 40.7337 26.822C40.4859 26.5741 40.1497 26.4348 39.7991 26.4348H39.5054C39.1549 26.4348 38.8187 26.5741 38.5708 26.822C38.3229 27.0699 38.1837 27.406 38.1837 27.7566ZM52.8697 27.7566V28.0503C52.8697 28.4009 53.0089 28.737 53.2568 28.9849C53.5047 29.2328 53.8409 29.3721 54.1914 29.3721H54.4852C54.8357 29.3721 55.1719 29.2328 55.4198 28.9849C55.6676 28.737 55.8069 28.4009 55.8069 28.0503V27.7566C55.8069 27.406 55.6676 27.0699 55.4198 26.822C55.1719 26.5741 54.8357 26.4348 54.4852 26.4348H54.1914C53.8409 26.4348 53.5047 26.5741 53.2568 26.822C53.0089 27.0699 52.8697 27.406 52.8697 27.7566ZM70.4929 27.7566V28.0503C70.4929 28.4009 70.6322 28.737 70.8801 28.9849C71.1279 29.2328 71.4641 29.3721 71.8147 29.3721H72.1084C72.4589 29.3721 72.7951 29.2328 73.043 28.9849C73.2909 28.737 73.4301 28.4009 73.4301 28.0503V27.7566C73.4301 27.406 73.2909 27.0699 73.043 26.822C72.7951 26.5741 72.4589 26.4348 72.1084 26.4348H71.8147C71.4641 26.4348 71.1279 26.5741 70.8801 26.822C70.6322 27.0699 70.4929 27.406 70.4929 27.7566ZM64.6185 30.6938V30.9875C64.6185 31.3381 64.7578 31.6743 65.0056 31.9221C65.2535 32.17 65.5897 32.3093 65.9403 32.3093H66.234C66.5845 32.3093 66.9207 32.17 67.1686 31.9221C67.4165 31.6743 67.5557 31.3381 67.5557 30.9875V30.6938C67.5557 30.3432 67.4165 30.0071 67.1686 29.7592C66.9207 29.5113 66.5845 29.3721 66.234 29.3721H65.9403C65.5897 29.3721 65.2535 29.5113 65.0056 29.7592C64.7578 30.0071 64.6185 30.3432 64.6185 30.6938ZM5.87441 33.631V36.8619C5.87441 37.2125 6.01366 37.5487 6.26154 37.7965C6.50941 38.0444 6.84561 38.1837 7.19615 38.1837H10.4271C10.7776 38.1837 11.1138 38.0444 11.3617 37.7965C11.6096 37.5487 11.7488 37.2125 11.7488 36.8619V36.5682C11.7488 36.2177 11.8881 35.8815 12.136 35.6336C12.3838 35.3857 12.72 35.2465 13.0706 35.2465H13.3643C13.7148 35.2465 14.051 35.1072 14.2989 34.8593C14.5468 34.6115 14.686 34.2753 14.686 33.9247V33.631C14.686 33.2805 14.5468 32.9443 14.2989 32.6964C14.051 32.4485 13.7148 32.3093 13.3643 32.3093H7.19615C6.84561 32.3093 6.50941 32.4485 6.26154 32.6964C6.01366 32.9443 5.87441 33.2805 5.87441 33.631ZM17.6232 33.631V33.9247C17.6232 34.2753 17.7625 34.6115 18.0104 34.8593C18.2582 35.1072 18.5944 35.2465 18.945 35.2465H22.1759C22.5264 35.2465 22.8626 35.1072 23.1105 34.8593C23.3584 34.6115 23.4976 34.2753 23.4976 33.9247V33.631C23.4976 33.2805 23.3584 32.9443 23.1105 32.6964C22.8626 32.4485 22.5264 32.3093 22.1759 32.3093H18.945C18.5944 32.3093 18.2582 32.4485 18.0104 32.6964C17.7625 32.9443 17.6232 33.2805 17.6232 33.631ZM46.9953 36.5682V36.8619C46.9953 37.2125 47.1345 37.5487 47.3824 37.7965C47.6303 38.0444 47.9665 38.1837 48.317 38.1837H48.6107C48.9613 38.1837 49.2975 38.3229 49.5454 38.5708C49.7932 38.8187 49.9325 39.1549 49.9325 39.5054V39.7991C49.9325 40.1497 50.0717 40.4859 50.3196 40.7337C50.5675 40.9816 50.9037 41.1209 51.2542 41.1209H54.4852C54.8357 41.1209 55.1719 40.9816 55.4198 40.7337C55.6676 40.4859 55.8069 40.1497 55.8069 39.7991V39.5054C55.8069 39.1549 55.6676 38.8187 55.4198 38.5708C55.1719 38.3229 54.8357 38.1837 54.4852 38.1837H51.2542C50.9037 38.1837 50.5675 38.0444 50.3196 37.7965C50.0717 37.5487 49.9325 37.2125 49.9325 36.8619V36.5682C49.9325 36.2177 49.7932 35.8815 49.5454 35.6336C49.2975 35.3857 48.9613 35.2465 48.6107 35.2465H48.317C47.9665 35.2465 47.6303 35.3857 47.3824 35.6336C47.1345 35.8815 46.9953 36.2177 46.9953 36.5682ZM67.5557 36.5682V36.8619C67.5557 37.2125 67.695 37.5487 67.9428 37.7965C68.1907 38.0444 68.5269 38.1837 68.8775 38.1837H69.1712C69.5217 38.1837 69.8579 38.3229 70.1058 38.5708C70.3537 38.8187 70.4929 39.1549 70.4929 39.5054V39.7991C70.4929 40.1497 70.6322 40.4859 70.8801 40.7337C71.1279 40.9816 71.4641 41.1209 71.8147 41.1209H72.1084C72.4589 41.1209 72.7951 40.9816 73.043 40.7337C73.2909 40.4859 73.4301 40.1497 73.4301 39.7991V36.5682C73.4301 36.2177 73.2909 35.8815 73.043 35.6336C72.7951 35.3857 72.4589 35.2465 72.1084 35.2465H68.8775C68.5269 35.2465 68.1907 35.3857 67.9428 35.6336C67.695 35.8815 67.5557 36.2177 67.5557 36.5682ZM38.1837 39.5054V39.7991C38.1837 40.1497 38.3229 40.4859 38.5708 40.7337C38.8187 40.9816 39.1549 41.1209 39.5054 41.1209H39.7991C40.1497 41.1209 40.4859 40.9816 40.7337 40.7337C40.9816 40.4859 41.1209 40.1497 41.1209 39.7991V39.5054C41.1209 39.1549 40.9816 38.8187 40.7337 38.5708C40.4859 38.3229 40.1497 38.1837 39.7991 38.1837H39.5054C39.1549 38.1837 38.8187 38.3229 38.5708 38.5708C38.3229 38.8187 38.1837 39.1549 38.1837 39.5054ZM20.5604 42.4426V42.7363C20.5604 42.9099 20.5262 43.0818 20.4598 43.2421C20.3934 43.4025 20.296 43.5482 20.1733 43.671C20.0506 43.7937 19.9049 43.891 19.7445 43.9575C19.5841 44.0239 19.4123 44.0581 19.2387 44.0581H18.945C18.5944 44.0581 18.2582 44.1973 18.0104 44.4452C17.7625 44.6931 17.6232 45.0293 17.6232 45.3798V45.6735C17.6232 46.0241 17.7625 46.3603 18.0104 46.6082C18.2582 46.856 18.5944 46.9953 18.945 46.9953H22.1759C22.5264 46.9953 22.8626 46.856 23.1105 46.6082C23.3584 46.3603 23.4976 46.0241 23.4976 45.6735V42.4426C23.4976 42.0921 23.3584 41.7559 23.1105 41.508C22.8626 41.2601 22.5264 41.1209 22.1759 41.1209H21.8822C21.5316 41.1209 21.1954 41.2601 20.9476 41.508C20.6997 41.7559 20.5604 42.0921 20.5604 42.4426ZM5.87441 45.3798V45.6735C5.87441 46.0241 6.01366 46.3603 6.26154 46.6082C6.50941 46.856 6.84561 46.9953 7.19615 46.9953H7.48987C7.84042 46.9953 8.17661 46.856 8.42449 46.6082C8.67236 46.3603 8.81162 46.0241 8.81162 45.6735V45.3798C8.81162 45.0293 8.67236 44.6931 8.42449 44.4452C8.17661 44.1973 7.84042 44.0581 7.48987 44.0581H7.19615C6.84561 44.0581 6.50941 44.1973 6.26154 44.4452C6.01366 44.6931 5.87441 45.0293 5.87441 45.3798ZM49.9325 51.2542V57.4224C49.9325 57.7729 50.0717 58.1091 50.3196 58.357C50.5675 58.6049 50.9037 58.7441 51.2542 58.7441H57.4224C57.7729 58.7441 58.1091 58.6049 58.357 58.357C58.6049 58.1091 58.7441 57.7729 58.7441 57.4224V51.2542C58.7441 50.9037 58.6049 50.5675 58.357 50.3196C58.1091 50.0717 57.7729 49.9325 57.4224 49.9325H51.2542C50.9037 49.9325 50.5675 50.0717 50.3196 50.3196C50.0717 50.5675 49.9325 50.9037 49.9325 51.2542ZM29.3721 54.1914V60.3596C29.3721 60.7101 29.2328 61.0463 28.9849 61.2942C28.737 61.5421 28.4009 61.6813 28.0503 61.6813H27.7566C27.406 61.6813 27.0699 61.5421 26.822 61.2942C26.5741 61.0463 26.4348 60.7101 26.4348 60.3596V57.1286C26.4348 56.7781 26.2956 56.4419 26.0477 56.194C25.7998 55.9462 25.4637 55.8069 25.1131 55.8069H24.8194C24.4688 55.8069 24.1326 55.9462 23.8848 56.194C23.6369 56.4419 23.4976 56.7781 23.4976 57.1286V66.234C23.4976 66.5845 23.6369 66.9207 23.8848 67.1686C24.1326 67.4165 24.4688 67.5557 24.8194 67.5557H28.0503C28.4009 67.5557 28.737 67.695 28.9849 67.9428C29.2328 68.1907 29.3721 68.5269 29.3721 68.8775V69.1712C29.3721 69.5217 29.2328 69.8579 28.9849 70.1058C28.737 70.3537 28.4009 70.4929 28.0503 70.4929H24.8194C24.4688 70.4929 24.1326 70.6322 23.8848 70.8801C23.6369 71.1279 23.4976 71.4641 23.4976 71.8147V72.1084C23.4976 72.4589 23.6369 72.7951 23.8848 73.043C24.1326 73.2909 24.4688 73.4301 24.8194 73.4301H30.9875C31.3381 73.4301 31.6743 73.2909 31.9221 73.043C32.17 72.7951 32.3093 72.4589 32.3093 72.1084V68.8775C32.3093 68.5269 32.4485 68.1907 32.6964 67.9428C32.9443 67.695 33.2805 67.5557 33.631 67.5557H33.9247C34.2753 67.5557 34.6115 67.4165 34.8593 67.1686C35.1072 66.9207 35.2465 66.5845 35.2465 66.234V65.9403C35.2465 65.5897 35.3857 65.2535 35.6336 65.0056C35.8815 64.7578 36.2177 64.6185 36.5682 64.6185H36.8619C37.2125 64.6185 37.5487 64.7578 37.7965 65.0056C38.0444 65.2535 38.1837 65.5897 38.1837 65.9403V66.234C38.1837 66.5845 38.3229 66.9207 38.5708 67.1686C38.8187 67.4165 39.1549 67.5557 39.5054 67.5557H39.7991C40.1497 67.5557 40.4859 67.695 40.7337 67.9428C40.9816 68.1907 41.1209 68.5269 41.1209 68.8775V69.1712C41.1209 69.5217 40.9816 69.8579 40.7337 70.1058C40.4859 70.3537 40.1497 70.4929 39.7991 70.4929H36.5682C36.2177 70.4929 35.8815 70.6322 35.6336 70.8801C35.3857 71.1279 35.2465 71.4641 35.2465 71.8147V72.1084C35.2465 72.4589 35.3857 72.7951 35.6336 73.043C35.8815 73.2909 36.2177 73.4301 36.5682 73.4301H39.7991C40.1497 73.4301 40.4859 73.2909 40.7337 73.043C40.9816 72.7951 41.1209 72.4589 41.1209 72.1084V71.8147C41.1209 71.4641 41.2601 71.1279 41.508 70.8801C41.7559 70.6322 42.0921 70.4929 42.4426 70.4929H42.7363C43.0869 70.4929 43.4231 70.3537 43.671 70.1058C43.9188 69.8579 44.0581 69.5217 44.0581 69.1712V68.8775C44.0581 68.5269 43.9188 68.1907 43.671 67.9428C43.4231 67.695 43.0869 67.5557 42.7363 67.5557H42.4426C42.0921 67.5557 41.7559 67.4165 41.508 67.1686C41.2601 66.9207 41.1209 66.5845 41.1209 66.234V65.9403C41.1209 65.5897 40.9816 65.2535 40.7337 65.0056C40.4859 64.7578 40.1497 64.6185 39.7991 64.6185H39.5054C39.1549 64.6185 38.8187 64.4793 38.5708 64.2314C38.3229 63.9835 38.1837 63.6473 38.1837 63.2968V63.0031C38.1837 62.6525 38.3229 62.3163 38.5708 62.0684C38.8187 61.8206 39.1549 61.6813 39.5054 61.6813H39.7991C40.1497 61.6813 40.4859 61.5421 40.7337 61.2942C40.9816 61.0463 41.1209 60.7101 41.1209 60.3596V57.1286C41.1209 56.7781 41.2601 56.4419 41.508 56.194C41.7559 55.9462 42.0921 55.8069 42.4426 55.8069H42.7363C43.0869 55.8069 43.4231 55.6676 43.671 55.4198C43.9188 55.1719 44.0581 54.8357 44.0581 54.4852V54.1914C44.0581 53.8409 43.9188 53.5047 43.671 53.2568C43.4231 53.0089 43.0869 52.8697 42.7363 52.8697H39.5054C39.1549 52.8697 38.8187 53.0089 38.5708 53.2568C38.3229 53.5047 38.1837 53.8409 38.1837 54.1914V57.4224C38.1837 57.7729 38.0444 58.1091 37.7965 58.357C37.5487 58.6049 37.2125 58.7441 36.8619 58.7441H36.5682C36.2177 58.7441 35.8815 58.6049 35.6336 58.357C35.3857 58.1091 35.2465 57.7729 35.2465 57.4224V57.1286C35.2465 56.7781 35.1072 56.4419 34.8593 56.194C34.6115 55.9462 34.2753 55.8069 33.9247 55.8069H33.631C33.2805 55.8069 32.9443 55.6676 32.6964 55.4198C32.4485 55.1719 32.3093 54.8357 32.3093 54.4852V54.1914C32.3093 53.8409 32.17 53.5047 31.9221 53.2568C31.6743 53.0089 31.3381 52.8697 30.9875 52.8697H30.6938C30.3432 52.8697 30.0071 53.0089 29.7592 53.2568C29.5113 53.5047 29.3721 53.8409 29.3721 54.1914ZM52.8697 54.1914V54.4852C52.8697 54.8357 53.0089 55.1719 53.2568 55.4198C53.5047 55.6676 53.8409 55.8069 54.1914 55.8069H54.4852C54.8357 55.8069 55.1719 55.6676 55.4198 55.4198C55.6676 55.1719 55.8069 54.8357 55.8069 54.4852V54.1914C55.8069 53.8409 55.6676 53.5047 55.4198 53.2568C55.1719 53.0089 54.8357 52.8697 54.4852 52.8697H54.1914C53.8409 52.8697 53.5047 53.0089 53.2568 53.2568C53.0089 53.5047 52.8697 53.8409 52.8697 54.1914ZM32.3093 60.0658V60.3596C32.3093 60.7101 32.17 61.0463 31.9221 61.2942C31.6743 61.5421 31.3381 61.6813 30.9875 61.6813H30.6938C30.3432 61.6813 30.0071 61.8206 29.7592 62.0684C29.5113 62.3163 29.3721 62.6525 29.3721 63.0031V66.234C29.3721 66.5845 29.5113 66.9207 29.7592 67.1686C30.0071 67.4165 30.3432 67.5557 30.6938 67.5557H30.9875C31.3381 67.5557 31.6743 67.4165 31.9221 67.1686C32.17 66.9207 32.3093 66.5845 32.3093 66.234V65.9403C32.3093 65.5897 32.4485 65.2535 32.6964 65.0056C32.9443 64.7578 33.2805 64.6185 33.631 64.6185H33.9247C34.2753 64.6185 34.6115 64.4793 34.8593 64.2314C35.1072 63.9835 35.2465 63.6473 35.2465 63.2968V60.0658C35.2465 59.7153 35.1072 59.3791 34.8593 59.1312C34.6115 58.8834 34.2753 58.7441 33.9247 58.7441H33.631C33.2805 58.7441 32.9443 58.8834 32.6964 59.1312C32.4485 59.3791 32.3093 59.7153 32.3093 60.0658ZM49.9325 63.0031V63.2968C49.9325 63.6473 50.0717 63.9835 50.3196 64.2314C50.5675 64.4793 50.9037 64.6185 51.2542 64.6185H54.4852C54.8357 64.6185 55.1719 64.7578 55.4198 65.0056C55.6676 65.2535 55.8069 65.5897 55.8069 65.9403V66.234C55.8069 66.5845 55.9462 66.9207 56.194 67.1686C56.4419 67.4165 56.7781 67.5557 57.1286 67.5557H57.4224C57.7729 67.5557 58.1091 67.4165 58.357 67.1686C58.6049 66.9207 58.7441 66.5845 58.7441 66.234V63.0031C58.7441 62.6525 58.6049 62.3163 58.357 62.0684C58.1091 61.8206 57.7729 61.6813 57.4224 61.6813H51.2542C50.9037 61.6813 50.5675 61.8206 50.3196 62.0684C50.0717 62.3163 49.9325 62.6525 49.9325 63.0031ZM67.5557 65.9403V66.234C67.5557 66.5845 67.4165 66.9207 67.1686 67.1686C66.9207 67.4165 66.5845 67.5557 66.234 67.5557H65.9403C65.5897 67.5557 65.2535 67.695 65.0056 67.9428C64.7578 68.1907 64.6185 68.5269 64.6185 68.8775V69.1712C64.6185 69.5217 64.7578 69.8579 65.0056 70.1058C65.2535 70.3537 65.5897 70.4929 65.9403 70.4929H66.234C66.5845 70.4929 66.9207 70.3537 67.1686 70.1058C67.4165 69.8579 67.5557 69.5217 67.5557 69.1712V68.8775C67.5557 68.5269 67.695 68.1907 67.9428 67.9428C68.1907 67.695 68.5269 67.5557 68.8775 67.5557H69.1712C69.5217 67.5557 69.8579 67.4165 70.1058 67.1686C70.3537 66.9207 70.4929 66.5845 70.4929 66.234V65.9403C70.4929 65.5897 70.3537 65.2535 70.1058 65.0056C69.8579 64.7578 69.5217 64.6185 69.1712 64.6185H68.8775C68.5269 64.6185 68.1907 64.7578 67.9428 65.0056C67.695 65.2535 67.5557 65.5897 67.5557 65.9403Z" fill="white"/>
</svg>
