<svg width="10" height="8" viewBox="0 0 10 8" fill="none" xmlns="http://www.w3.org/2000/svg">
<path d="M5.24316 0.243095C5.5673 -0.0810286 6.09286 -0.0810345 6.41699 0.243095L9.41699 3.24309L9.47363 3.30657C9.7394 3.63255 9.72076 4.11308 9.41699 4.41692L6.41699 7.41595C6.09286 7.74008 5.5673 7.74008 5.24316 7.41595C4.91949 7.09177 4.92016 6.56708 5.24414 6.24309L6.82617 4.66009H0.830078L0.745117 4.65618C0.326635 4.61366 4.00356e-05 4.2597 0 3.83001C1.87839e-08 3.40028 0.326613 3.04637 0.745117 3.00384L0.830078 2.99993H6.82617L5.24316 1.41692C4.91905 1.09279 4.91906 0.567226 5.24316 0.243095Z" fill="#EBEBED"/>
</svg>
