<svg width="20" height="16" viewBox="0 0 20 16" fill="none" xmlns="http://www.w3.org/2000/svg">
<path fill-rule="evenodd" clip-rule="evenodd" d="M11 2.00382C11 0.308152 9.02229 -0.618168 7.71963 0.46738L3.63795 3.86878H2C0.89543 3.86878 0 4.76421 0 5.86878V9.86878C0 10.9734 0.89543 11.8688 2 11.8688H3.63795L7.71963 15.2702C9.02229 16.3557 11 15.4294 11 13.7337V2.00382ZM4.91832 5.40522L9 2.00382L9 13.7337L4.91832 10.3323C4.55889 10.0328 4.10582 9.86878 3.63795 9.86878H2V5.86878H3.63795C4.10582 5.86878 4.55889 5.70475 4.91832 5.40522Z" fill="#EBEBED"/>
<path d="M16.3394 1.40284C16.767 1.05333 17.397 1.11666 17.7465 1.54428C19.1547 3.26719 20.0001 5.47059 20.0001 7.86878C20.0001 10.267 19.1547 12.4704 17.7465 14.1933C17.397 14.6209 16.767 14.6842 16.3394 14.3347C15.9117 13.9852 15.8484 13.3552 16.1979 12.9276C17.3249 11.5488 18.0001 9.78898 18.0001 7.86878C18.0001 5.94858 17.3249 4.18878 16.1979 2.80996C15.8484 2.38234 15.9117 1.75235 16.3394 1.40284Z" fill="#EBEBED"/>
<path d="M13.567 4.22564C14.023 3.91405 14.6453 4.03111 14.9568 4.4871C15.615 5.45032 16 6.6161 16 7.86877C16 9.12144 15.615 10.2872 14.9568 11.2504C14.6453 11.7064 14.023 11.8235 13.567 11.5119C13.111 11.2003 12.994 10.5781 13.3056 10.1221C13.7438 9.48072 14 8.70617 14 7.86877C14 7.03136 13.7438 6.25682 13.3056 5.61547C12.994 5.15948 13.111 4.53723 13.567 4.22564Z" fill="#EBEBED"/>
</svg>
