<svg width="15" height="13" viewBox="0 0 15 13" fill="none" xmlns="http://www.w3.org/2000/svg">
<path d="M8.24635 0.000109315C11.5784 0.000109315 14.2664 2.68811 14.2664 6.02011C14.2664 9.35211 11.5784 12.0401 8.24635 12.0401C5.60035 12.0401 3.96235 10.4021 3.45835 9.66011L4.20035 9.00211C5.20835 10.3601 6.70635 11.0461 8.24635 11.0461C11.0324 11.0461 13.2724 8.80611 13.2724 6.02011C13.2724 3.23411 11.0324 0.994109 8.24635 0.994109C5.47435 0.994109 3.22035 3.23411 3.22035 6.02011V6.03411C3.72435 5.60011 4.48035 5.15211 5.44635 4.69011V5.50211C4.31235 6.48211 3.45835 7.51811 2.92635 8.58211H2.52035C1.98835 7.51811 1.14835 6.48211 0.000351638 5.50211V4.69011C0.980352 5.15211 1.73635 5.60011 2.22635 6.03411V6.02011C2.22635 2.68811 4.91435 0.000109315 8.24635 0.000109315Z" fill="#7E828E"/>
</svg>
