<svg width="15" height="15" viewBox="0 0 15 15" fill="none" xmlns="http://www.w3.org/2000/svg">
<path d="M7.33333 9.33333C7.88889 9.33333 8.36111 9.13889 8.75 8.75C9.13889 8.36111 9.33333 7.88889 9.33333 7.33333C9.33333 6.77778 9.13889 6.30556 8.75 5.91667C8.36111 5.52778 7.88889 5.33333 7.33333 5.33333C6.77778 5.33333 6.30556 5.52778 5.91667 5.91667C5.52778 6.30556 5.33333 6.77778 5.33333 7.33333C5.33333 7.88889 5.52778 8.36111 5.91667 8.75C6.30556 9.13889 6.77778 9.33333 7.33333 9.33333ZM7.33333 10.6667C6.41111 10.6667 5.625 10.3417 4.975 9.69167C4.325 9.04167 4 8.25556 4 7.33333C4 6.41111 4.325 5.625 4.975 4.975C5.625 4.325 6.41111 4 7.33333 4C8.25556 4 9.04167 4.325 9.69167 4.975C10.3417 5.625 10.6667 6.41111 10.6667 7.33333C10.6667 8.25556 10.3417 9.04167 9.69167 9.69167C9.04167 10.3417 8.25556 10.6667 7.33333 10.6667ZM2.66667 8H0V6.66667H2.66667V8ZM14.6667 8H12V6.66667H14.6667V8ZM6.66667 2.66667V0H8V2.66667H6.66667ZM6.66667 14.6667V12H8V14.6667H6.66667ZM3.6 4.5L1.91667 2.88333L2.86667 1.9L4.46667 3.56667L3.6 4.5ZM11.8 12.7667L10.1833 11.0833L11.0667 10.1667L12.75 11.7833L11.8 12.7667ZM10.1667 3.6L11.7833 1.91667L12.7667 2.86667L11.1 4.46667L10.1667 3.6ZM1.9 11.8L3.58333 10.1833L4.5 11.0667L2.88333 12.75L1.9 11.8Z" fill="#7E828E"/>
</svg>
