<svg width="18" height="18" viewBox="0 0 18 18" fill="none" xmlns="http://www.w3.org/2000/svg">
<path d="M9 0C13.9705 4.43258e-05 18 4.02946 18 9C18 13.9705 13.9705 18 9 18C4.80503 18 1.28224 15.1305 0.283203 11.249C0.145756 10.7143 0.468228 10.1689 1.00293 10.0312C1.53768 9.89378 2.08306 10.2162 2.2207 10.751C2.99793 13.7702 5.73979 16 9 16C12.866 16 16 12.866 16 9C16 5.13403 12.866 2.00004 9 2C6.62262 2.00003 4.52072 3.18571 3.25488 5H4.5C5.05228 5 5.5 5.44772 5.5 6C5.5 6.55228 5.05228 7 4.5 7H1C0.447715 7 0 6.55228 0 6V2.5C0 1.94772 0.447715 1.5 1 1.5C1.55228 1.5 2 1.94772 2 2.5V3.34473C3.64922 1.30573 6.17116 2.49333e-05 9 0Z" fill="#7E828E"/>
<path d="M9 4.5C9.55229 4.5 10 4.94772 10 5.5V8.58594L11.707 10.293C12.0976 10.6835 12.0976 11.3165 11.707 11.707C11.3165 12.0976 10.6835 12.0976 10.293 11.707L8.29297 9.70703C8.10543 9.5195 8 9.26522 8 9V5.5C8 4.94772 8.44771 4.5 9 4.5Z" fill="#7E828E"/>
</svg>
