<svg width="15" height="11" viewBox="0 0 15 11" fill="none" xmlns="http://www.w3.org/2000/svg">
<path fill-rule="evenodd" clip-rule="evenodd" d="M7.40918 0C7.40918 0 12.0478 0.000155807 13.2002 0.314453C13.8382 0.485957 14.3432 0.990877 14.5146 1.62891C14.8288 2.79105 14.8379 5.2002 14.8379 5.2002C14.8379 5.22454 14.8361 7.62491 14.5234 8.77148C14.352 9.40946 13.8479 9.9144 13.21 10.0859C12.0608 10.3993 7.44518 10.4004 7.41895 10.4004C7.41895 10.4004 2.78035 10.4002 1.62793 10.0859C0.989901 9.91445 0.484894 9.40954 0.313477 8.77148C0.000822186 7.61539 8.09305e-06 5.22449 0 5.2002C0 5.2002 -8.56519e-05 2.79012 0.304688 1.6377C0.476186 0.999855 0.980319 0.494729 1.61816 0.323242C2.76707 0.00990522 7.381 6.07733e-05 7.40918 0ZM5.93262 7.42871L9.78125 5.2002L5.93262 2.97168V7.42871Z" fill="#FBFCFF" fill-opacity="0.4"/>
</svg>
