<svg width="91" height="35" viewBox="0 0 91 35" fill="none" xmlns="http://www.w3.org/2000/svg">
<g clip-path="url(#clip0_3007_154197)">
<path d="M38.8795 0.426758H32.957V33.684H38.8795V0.426758Z" fill="white"/>
<path d="M49.0455 9.7666H43.123V33.6838H49.0455V9.7666Z" fill="white"/>
<path d="M46.0838 7.40436C44.9525 7.40436 44.0706 7.05364 43.3868 6.33245C42.7098 5.61942 42.3809 4.75862 42.3809 3.70169C42.3809 2.64476 42.7098 1.78464 43.3868 1.07094C44.0617 0.35996 44.9689 -0.000976562 46.0838 -0.000976562C47.1987 -0.000976562 48.0793 0.33953 48.7699 1.01033C49.4536 1.67636 49.7867 2.5106 49.7867 3.5614C49.7867 4.68235 49.457 5.58197 48.7787 6.31133C48.1045 7.03661 47.198 7.40368 46.0838 7.40368V7.40436Z" fill="white"/>
<path d="M65.2235 28.3694C64.445 28.8468 63.5201 29.0886 62.4686 29.0886C61.417 29.0886 60.6318 28.7569 60.0304 28.1031C59.4358 27.4582 59.1341 26.56 59.1341 25.4336V14.0872H64.7195V9.76685H59.1341V0.426758H53.166V25.5718C53.166 28.3844 53.9431 30.5214 55.4768 31.9236C57.0181 33.3347 58.7119 34.0504 61.5069 34.0504C62.5687 34.0504 63.61 33.9231 64.6017 33.6725C65.4693 33.4525 66.2226 33.1317 66.8451 32.7177L65.2241 28.3701L65.2235 28.3694Z" fill="white"/>
<path d="M90.2515 21.8176C90.2515 19.2413 89.6985 17.0076 88.6082 15.1791C87.5178 13.3519 86.1843 11.9177 84.3134 10.9159C82.435 9.91076 80.4647 9.40137 78.1253 9.40137C75.7859 9.40137 73.648 9.93392 71.7104 10.9834C69.779 12.0301 68.4223 13.5024 67.3476 15.3582C66.2708 17.216 65.7246 19.3591 65.7246 21.7263C65.7246 24.0935 66.2926 26.2238 67.4123 28.0652C68.5319 29.9074 69.9649 31.3804 72.0033 32.4434C74.0485 33.5106 76.3042 34.0513 79.0413 34.0513C81.2125 34.0513 82.9874 33.7135 84.6464 33.0468C86.1877 32.4278 87.6683 31.5472 88.7212 30.427L85.3867 26.8115C84.6028 27.5122 83.7393 28.0536 82.8151 28.4227C81.7853 28.8348 80.5928 29.0438 79.2708 29.0438C77.7255 29.0438 76.3777 28.7619 75.2649 28.2048C74.1404 27.643 73.2435 26.8196 72.6006 25.7579C72.2457 25.1729 71.9849 24.5205 71.8262 23.8198L71.8167 23.7789H90.2529V21.8176H90.2515ZM74.765 14.9366C75.7471 14.3734 76.8933 14.0881 78.1709 14.0881C79.4486 14.0881 80.5887 14.3741 81.5565 14.938C82.5243 15.5026 83.2932 16.2959 83.8421 17.2957C84.2031 17.9535 84.4408 18.6972 84.5497 19.5049H71.7356C71.8609 18.7054 72.102 17.9706 72.4528 17.3209C73.001 16.3048 73.7788 15.5026 74.765 14.9366Z" fill="white"/>
<g filter="url(#filter0_d_3007_154197)">
<path d="M16.7963 34.0007C8.87625 34.0007 1.96079 28.3694 0.351454 20.6113C-1.52826 11.5436 4.32066 2.63592 13.3896 0.755646C13.3896 0.755646 15.3579 0.287109 17.7988 0.287109C20.4965 0.287109 23.1349 0.79174 25.6412 1.7867C26.8732 2.27635 28.0698 2.88654 29.2038 3.6016L25.4614 7.7837C23.109 6.48229 20.461 5.79582 17.7845 5.79582C15.5813 5.79582 13.1553 6.18741 10.6395 7.73331C9.32575 8.54031 8.23061 9.67896 7.35954 11.0049C5.70525 13.5219 5.1318 16.5368 5.74475 19.4937C6.82559 24.7082 11.4731 28.4926 16.7956 28.4926C17.2444 28.4926 17.6953 28.4654 18.1434 28.4116C18.4615 28.3735 18.7816 28.3374 19.0921 28.2563C19.5675 28.1324 20.4658 27.8225 20.9323 27.5671C21.8681 27.055 22.6711 26.3175 23.2738 25.4001C24.2416 23.9258 24.5774 22.1612 24.2191 20.4315C23.1805 15.4083 19.0506 15.0181 17.809 15.0181C16.6968 15.0181 15.5561 15.7556 15.2135 16.6975C15.0637 17.1088 14.9506 17.8804 15.712 18.6792L11.9757 22.8545C10.7219 21.7881 9.85493 20.3293 9.51985 18.7119C8.68828 14.6987 11.2763 10.7556 15.2905 9.92276C15.2905 9.92276 16.5259 9.65581 17.7484 9.65581C19.276 9.65581 20.7736 9.94319 22.1998 10.5091C22.5485 10.6474 22.8904 10.802 23.2159 10.9681C26.5286 12.6489 28.8592 15.6903 29.6111 19.3133C30.269 22.4854 29.6533 25.7202 27.8771 28.4225C26.2616 30.8823 23.8629 32.6359 21.0583 33.4272C20.9548 33.4565 20.8499 33.4845 20.745 33.511C20.5673 33.556 20.0456 33.7031 19.4299 33.7923C19.3032 33.8107 19.1766 33.8311 19.0499 33.8481C18.3014 33.9496 17.5475 34.0007 16.797 34.0007H16.7963Z" fill="white"/>
</g>
</g>
<defs>
<filter id="filter0_d_3007_154197" x="-4" y="0.287109" width="37.8672" height="41.7134" filterUnits="userSpaceOnUse" color-interpolation-filters="sRGB">
<feFlood flood-opacity="0" result="BackgroundImageFix"/>
<feColorMatrix in="SourceAlpha" type="matrix" values="0 0 0 0 0 0 0 0 0 0 0 0 0 0 0 0 0 0 127 0" result="hardAlpha"/>
<feOffset dy="4"/>
<feGaussianBlur stdDeviation="2"/>
<feComposite in2="hardAlpha" operator="out"/>
<feColorMatrix type="matrix" values="0 0 0 0 0 0 0 0 0 0 0 0 0 0 0 0 0 0 0.25 0"/>
<feBlend mode="normal" in2="BackgroundImageFix" result="effect1_dropShadow_3007_154197"/>
<feBlend mode="normal" in="SourceGraphic" in2="effect1_dropShadow_3007_154197" result="shape"/>
</filter>
<clipPath id="clip0_3007_154197">
<rect width="90.3053" height="34.0518" fill="white"/>
</clipPath>
</defs>
</svg>
